<mxfile host="app.diagrams.net" modified="2021-09-08T09:02:57.151Z" agent="5.0 (Macintosh; Intel Mac OS X 10_15_7) AppleWebKit/537.36 (KHTML, like Gecko) Chrome/90.0.4430.93 Safari/537.36" etag="TFylgrYyIsoNCYkch-cN" version="14.9.2" type="github">
  <diagram id="9mgDxgXtX1mhdAdbb5O-" name="Page-1">
    <mxGraphModel dx="1426" dy="746" grid="1" gridSize="10" guides="1" tooltips="1" connect="1" arrows="1" fold="1" page="1" pageScale="1" pageWidth="827" pageHeight="1169" math="0" shadow="0">
      <root>
        <mxCell id="0" />
        <mxCell id="1" parent="0" />
        <mxCell id="F0ZZbwECHCnWUXEjkvRt-1" style="edgeStyle=orthogonalEdgeStyle;rounded=0;orthogonalLoop=1;jettySize=auto;html=1;exitX=0.5;exitY=0.5;exitDx=0;exitDy=0;exitPerimeter=0;" edge="1" parent="1" source="F0ZZbwECHCnWUXEjkvRt-2" target="F0ZZbwECHCnWUXEjkvRt-8">
          <mxGeometry relative="1" as="geometry">
            <mxPoint x="170" y="130" as="sourcePoint" />
          </mxGeometry>
        </mxCell>
        <mxCell id="F0ZZbwECHCnWUXEjkvRt-2" value="Actor" style="shape=umlActor;verticalLabelPosition=bottom;labelBackgroundColor=#ffffff;verticalAlign=top;html=1;outlineConnect=0;fillColor=#FFFFFF;" vertex="1" parent="1">
          <mxGeometry x="140" y="100" width="30" height="60" as="geometry" />
        </mxCell>
        <mxCell id="F0ZZbwECHCnWUXEjkvRt-3" style="edgeStyle=orthogonalEdgeStyle;rounded=0;orthogonalLoop=1;jettySize=auto;html=1;exitX=1;exitY=0.5;exitDx=0;exitDy=0;" edge="1" parent="1" source="F0ZZbwECHCnWUXEjkvRt-8" target="F0ZZbwECHCnWUXEjkvRt-10">
          <mxGeometry relative="1" as="geometry" />
        </mxCell>
        <mxCell id="F0ZZbwECHCnWUXEjkvRt-4" style="edgeStyle=orthogonalEdgeStyle;rounded=0;orthogonalLoop=1;jettySize=auto;html=1;exitX=0.25;exitY=1;exitDx=0;exitDy=0;entryX=0.25;entryY=0;entryDx=0;entryDy=0;" edge="1" parent="1" source="F0ZZbwECHCnWUXEjkvRt-8" target="F0ZZbwECHCnWUXEjkvRt-18">
          <mxGeometry relative="1" as="geometry" />
        </mxCell>
        <mxCell id="F0ZZbwECHCnWUXEjkvRt-5" value="start&lt;br /&gt;analysis" style="edgeLabel;html=1;align=center;verticalAlign=middle;resizable=0;points=[];" connectable="0" vertex="1" parent="F0ZZbwECHCnWUXEjkvRt-4">
          <mxGeometry x="-0.1217" y="1" relative="1" as="geometry">
            <mxPoint x="-31" as="offset" />
          </mxGeometry>
        </mxCell>
        <mxCell id="F0ZZbwECHCnWUXEjkvRt-6" style="edgeStyle=orthogonalEdgeStyle;rounded=0;orthogonalLoop=1;jettySize=auto;html=1;exitX=0.75;exitY=1;exitDx=0;exitDy=0;entryX=0.75;entryY=0;entryDx=0;entryDy=0;" edge="1" parent="1" source="F0ZZbwECHCnWUXEjkvRt-8" target="F0ZZbwECHCnWUXEjkvRt-18">
          <mxGeometry relative="1" as="geometry" />
        </mxCell>
        <mxCell id="F0ZZbwECHCnWUXEjkvRt-7" value="stop analyis" style="edgeLabel;html=1;align=center;verticalAlign=middle;resizable=0;points=[];" connectable="0" vertex="1" parent="F0ZZbwECHCnWUXEjkvRt-6">
          <mxGeometry x="0.1927" y="-1" relative="1" as="geometry">
            <mxPoint x="41" y="15" as="offset" />
          </mxGeometry>
        </mxCell>
        <mxCell id="F0ZZbwECHCnWUXEjkvRt-8" value="Rhino" style="rounded=0;whiteSpace=wrap;html=1;fillColor=#FFFFFF;" vertex="1" parent="1">
          <mxGeometry x="320" y="100" width="120" height="60" as="geometry" />
        </mxCell>
        <mxCell id="F0ZZbwECHCnWUXEjkvRt-9" style="edgeStyle=orthogonalEdgeStyle;rounded=0;orthogonalLoop=1;jettySize=auto;html=1;exitX=1;exitY=0.5;exitDx=0;exitDy=0;" edge="1" parent="1" source="F0ZZbwECHCnWUXEjkvRt-10" target="F0ZZbwECHCnWUXEjkvRt-13">
          <mxGeometry relative="1" as="geometry" />
        </mxCell>
        <mxCell id="F0ZZbwECHCnWUXEjkvRt-10" value="server1" style="rounded=0;whiteSpace=wrap;html=1;fillColor=#FFFFFF;" vertex="1" parent="1">
          <mxGeometry x="720" y="100" width="120" height="60" as="geometry" />
        </mxCell>
        <mxCell id="F0ZZbwECHCnWUXEjkvRt-11" value="server3" style="rounded=0;whiteSpace=wrap;html=1;fillColor=#FFFFFF;" vertex="1" parent="1">
          <mxGeometry x="1020" y="100" width="120" height="60" as="geometry" />
        </mxCell>
        <mxCell id="F0ZZbwECHCnWUXEjkvRt-12" style="edgeStyle=orthogonalEdgeStyle;rounded=0;orthogonalLoop=1;jettySize=auto;html=1;exitX=1;exitY=0.5;exitDx=0;exitDy=0;entryX=0;entryY=0.5;entryDx=0;entryDy=0;" edge="1" parent="1" source="F0ZZbwECHCnWUXEjkvRt-13" target="F0ZZbwECHCnWUXEjkvRt-11">
          <mxGeometry relative="1" as="geometry" />
        </mxCell>
        <mxCell id="F0ZZbwECHCnWUXEjkvRt-13" value="server2" style="rounded=0;whiteSpace=wrap;html=1;fillColor=#FFFFFF;" vertex="1" parent="1">
          <mxGeometry x="870" y="100" width="120" height="60" as="geometry" />
        </mxCell>
        <mxCell id="F0ZZbwECHCnWUXEjkvRt-14" style="edgeStyle=orthogonalEdgeStyle;rounded=0;orthogonalLoop=1;jettySize=auto;html=1;entryX=0;entryY=0.5;entryDx=0;entryDy=0;" edge="1" parent="1" source="F0ZZbwECHCnWUXEjkvRt-18" target="F0ZZbwECHCnWUXEjkvRt-23">
          <mxGeometry relative="1" as="geometry">
            <mxPoint x="470" y="310" as="sourcePoint" />
            <mxPoint x="540" y="310" as="targetPoint" />
          </mxGeometry>
        </mxCell>
        <mxCell id="F0ZZbwECHCnWUXEjkvRt-15" value="async running" style="edgeLabel;html=1;align=center;verticalAlign=middle;resizable=0;points=[];" connectable="0" vertex="1" parent="F0ZZbwECHCnWUXEjkvRt-14">
          <mxGeometry x="-0.2571" y="-3" relative="1" as="geometry">
            <mxPoint x="13" y="8" as="offset" />
          </mxGeometry>
        </mxCell>
        <mxCell id="F0ZZbwECHCnWUXEjkvRt-16" style="edgeStyle=orthogonalEdgeStyle;rounded=0;orthogonalLoop=1;jettySize=auto;html=1;exitX=0.5;exitY=0;exitDx=0;exitDy=0;entryX=0.5;entryY=1;entryDx=0;entryDy=0;" edge="1" parent="1" source="F0ZZbwECHCnWUXEjkvRt-18" target="F0ZZbwECHCnWUXEjkvRt-8">
          <mxGeometry relative="1" as="geometry" />
        </mxCell>
        <mxCell id="F0ZZbwECHCnWUXEjkvRt-17" value="resp" style="edgeLabel;html=1;align=center;verticalAlign=middle;resizable=0;points=[];" connectable="0" vertex="1" parent="F0ZZbwECHCnWUXEjkvRt-16">
          <mxGeometry x="-0.211" relative="1" as="geometry">
            <mxPoint x="-10" y="14" as="offset" />
          </mxGeometry>
        </mxCell>
        <mxCell id="F0ZZbwECHCnWUXEjkvRt-18" value="perf_analysis" style="rounded=0;whiteSpace=wrap;html=1;fillColor=#FFFFFF;" vertex="1" parent="1">
          <mxGeometry x="320" y="269" width="120" height="60" as="geometry" />
        </mxCell>
        <mxCell id="F0ZZbwECHCnWUXEjkvRt-19" style="edgeStyle=orthogonalEdgeStyle;rounded=0;orthogonalLoop=1;jettySize=auto;html=1;exitX=0.5;exitY=1;exitDx=0;exitDy=0;entryX=0.5;entryY=0;entryDx=0;entryDy=0;" edge="1" parent="1" source="F0ZZbwECHCnWUXEjkvRt-23" target="F0ZZbwECHCnWUXEjkvRt-30">
          <mxGeometry relative="1" as="geometry" />
        </mxCell>
        <mxCell id="F0ZZbwECHCnWUXEjkvRt-20" value="query" style="edgeLabel;html=1;align=center;verticalAlign=middle;resizable=0;points=[];" connectable="0" vertex="1" parent="F0ZZbwECHCnWUXEjkvRt-19">
          <mxGeometry x="-0.2195" y="-2" relative="1" as="geometry">
            <mxPoint x="22" as="offset" />
          </mxGeometry>
        </mxCell>
        <mxCell id="F0ZZbwECHCnWUXEjkvRt-21" style="edgeStyle=orthogonalEdgeStyle;rounded=0;orthogonalLoop=1;jettySize=auto;html=1;exitX=1;exitY=0.5;exitDx=0;exitDy=0;" edge="1" parent="1" source="F0ZZbwECHCnWUXEjkvRt-23" target="F0ZZbwECHCnWUXEjkvRt-54">
          <mxGeometry relative="1" as="geometry" />
        </mxCell>
        <mxCell id="F0ZZbwECHCnWUXEjkvRt-22" value="analysis" style="edgeLabel;html=1;align=center;verticalAlign=middle;resizable=0;points=[];" connectable="0" vertex="1" parent="F0ZZbwECHCnWUXEjkvRt-21">
          <mxGeometry x="0.28" y="1" relative="1" as="geometry">
            <mxPoint x="-14" y="12" as="offset" />
          </mxGeometry>
        </mxCell>
        <mxCell id="F0ZZbwECHCnWUXEjkvRt-23" value="perf_analysis" style="rounded=0;whiteSpace=wrap;html=1;fillColor=#FFFFFF;" vertex="1" parent="1">
          <mxGeometry x="540" y="269" width="120" height="60" as="geometry" />
        </mxCell>
        <mxCell id="F0ZZbwECHCnWUXEjkvRt-24" style="edgeStyle=orthogonalEdgeStyle;rounded=0;orthogonalLoop=1;jettySize=auto;html=1;exitX=0.5;exitY=1;exitDx=0;exitDy=0;entryX=1;entryY=0.5;entryDx=0;entryDy=0;entryPerimeter=0;" edge="1" parent="1" source="F0ZZbwECHCnWUXEjkvRt-25" target="F0ZZbwECHCnWUXEjkvRt-35">
          <mxGeometry relative="1" as="geometry" />
        </mxCell>
        <mxCell id="F0ZZbwECHCnWUXEjkvRt-25" value="server1 metrics" style="rounded=0;whiteSpace=wrap;html=1;fillColor=#FFFFFF;" vertex="1" parent="1">
          <mxGeometry x="620" y="490" width="120" height="60" as="geometry" />
        </mxCell>
        <mxCell id="F0ZZbwECHCnWUXEjkvRt-26" style="edgeStyle=orthogonalEdgeStyle;rounded=0;orthogonalLoop=1;jettySize=auto;html=1;exitX=0.5;exitY=1;exitDx=0;exitDy=0;entryX=0;entryY=0.5;entryDx=0;entryDy=0;entryPerimeter=0;" edge="1" parent="1" source="F0ZZbwECHCnWUXEjkvRt-27" target="F0ZZbwECHCnWUXEjkvRt-35">
          <mxGeometry relative="1" as="geometry" />
        </mxCell>
        <mxCell id="F0ZZbwECHCnWUXEjkvRt-27" value="client monitor" style="rounded=0;whiteSpace=wrap;html=1;fillColor=#FFFFFF;" vertex="1" parent="1">
          <mxGeometry x="460" y="490" width="120" height="60" as="geometry" />
        </mxCell>
        <mxCell id="F0ZZbwECHCnWUXEjkvRt-28" style="edgeStyle=orthogonalEdgeStyle;rounded=0;orthogonalLoop=1;jettySize=auto;html=1;exitX=0.5;exitY=1;exitDx=0;exitDy=0;entryX=0.5;entryY=0;entryDx=0;entryDy=0;" edge="1" parent="1" source="F0ZZbwECHCnWUXEjkvRt-30" target="F0ZZbwECHCnWUXEjkvRt-27">
          <mxGeometry relative="1" as="geometry" />
        </mxCell>
        <mxCell id="F0ZZbwECHCnWUXEjkvRt-29" style="edgeStyle=orthogonalEdgeStyle;rounded=0;orthogonalLoop=1;jettySize=auto;html=1;exitX=0.5;exitY=1;exitDx=0;exitDy=0;" edge="1" parent="1" source="F0ZZbwECHCnWUXEjkvRt-30" target="F0ZZbwECHCnWUXEjkvRt-25">
          <mxGeometry relative="1" as="geometry" />
        </mxCell>
        <mxCell id="F0ZZbwECHCnWUXEjkvRt-30" value="perf_monitor" style="rounded=0;whiteSpace=wrap;html=1;fillColor=#FFFFFF;" vertex="1" parent="1">
          <mxGeometry x="540" y="370" width="120" height="60" as="geometry" />
        </mxCell>
        <mxCell id="F0ZZbwECHCnWUXEjkvRt-31" style="edgeStyle=orthogonalEdgeStyle;rounded=0;orthogonalLoop=1;jettySize=auto;html=1;exitX=0.5;exitY=0;exitDx=0;exitDy=0;entryX=1;entryY=1;entryDx=0;entryDy=0;" edge="1" parent="1" source="F0ZZbwECHCnWUXEjkvRt-54" target="F0ZZbwECHCnWUXEjkvRt-8">
          <mxGeometry relative="1" as="geometry">
            <mxPoint x="410" y="160" as="targetPoint" />
          </mxGeometry>
        </mxCell>
        <mxCell id="F0ZZbwECHCnWUXEjkvRt-32" value="callback" style="edgeLabel;html=1;align=center;verticalAlign=middle;resizable=0;points=[];" connectable="0" vertex="1" parent="F0ZZbwECHCnWUXEjkvRt-31">
          <mxGeometry x="0.0747" relative="1" as="geometry">
            <mxPoint x="-0.5" y="15.5" as="offset" />
          </mxGeometry>
        </mxCell>
        <mxCell id="F0ZZbwECHCnWUXEjkvRt-33" style="edgeStyle=orthogonalEdgeStyle;rounded=0;orthogonalLoop=1;jettySize=auto;html=1;exitX=1;exitY=0.5;exitDx=0;exitDy=0;entryX=0;entryY=0.5;entryDx=0;entryDy=0;" edge="1" parent="1" source="F0ZZbwECHCnWUXEjkvRt-54" target="F0ZZbwECHCnWUXEjkvRt-41">
          <mxGeometry relative="1" as="geometry">
            <mxPoint x="1262" y="299" as="sourcePoint" />
          </mxGeometry>
        </mxCell>
        <mxCell id="F0ZZbwECHCnWUXEjkvRt-34" value="yes" style="edgeLabel;html=1;align=center;verticalAlign=middle;resizable=0;points=[];" connectable="0" vertex="1" parent="F0ZZbwECHCnWUXEjkvRt-33">
          <mxGeometry x="-0.2444" y="-4" relative="1" as="geometry">
            <mxPoint x="27" y="7" as="offset" />
          </mxGeometry>
        </mxCell>
        <mxCell id="F0ZZbwECHCnWUXEjkvRt-35" value="cache" style="shape=mxgraph.flowchart.database;whiteSpace=wrap;html=1;fillColor=#ffffff;strokeColor=#000000;strokeWidth=2" vertex="1" parent="1">
          <mxGeometry x="570" y="600" width="60" height="60" as="geometry" />
        </mxCell>
        <mxCell id="F0ZZbwECHCnWUXEjkvRt-36" value="kepler/adtk" style="rounded=0;whiteSpace=wrap;html=1;fillColor=#FFFFFF;dashed=1;" vertex="1" parent="1">
          <mxGeometry x="1050" y="490" width="120" height="60" as="geometry" />
        </mxCell>
        <mxCell id="F0ZZbwECHCnWUXEjkvRt-37" style="edgeStyle=orthogonalEdgeStyle;rounded=0;orthogonalLoop=1;jettySize=auto;html=1;exitX=0.5;exitY=1;exitDx=0;exitDy=0;" edge="1" parent="1" source="F0ZZbwECHCnWUXEjkvRt-41" target="F0ZZbwECHCnWUXEjkvRt-48">
          <mxGeometry relative="1" as="geometry" />
        </mxCell>
        <mxCell id="F0ZZbwECHCnWUXEjkvRt-38" style="edgeStyle=orthogonalEdgeStyle;rounded=0;orthogonalLoop=1;jettySize=auto;html=1;exitX=0.5;exitY=0;exitDx=0;exitDy=0;entryX=1;entryY=1;entryDx=0;entryDy=0;" edge="1" parent="1" source="F0ZZbwECHCnWUXEjkvRt-41" target="F0ZZbwECHCnWUXEjkvRt-8">
          <mxGeometry relative="1" as="geometry" />
        </mxCell>
        <mxCell id="F0ZZbwECHCnWUXEjkvRt-39" style="edgeStyle=orthogonalEdgeStyle;rounded=0;orthogonalLoop=1;jettySize=auto;html=1;exitX=0.5;exitY=1;exitDx=0;exitDy=0;" edge="1" parent="1" source="F0ZZbwECHCnWUXEjkvRt-41" target="F0ZZbwECHCnWUXEjkvRt-62">
          <mxGeometry relative="1" as="geometry" />
        </mxCell>
        <mxCell id="F0ZZbwECHCnWUXEjkvRt-40" style="edgeStyle=orthogonalEdgeStyle;rounded=0;orthogonalLoop=1;jettySize=auto;html=1;exitX=1;exitY=0.5;exitDx=0;exitDy=0;entryX=1;entryY=0.5;entryDx=0;entryDy=0;entryPerimeter=0;" edge="1" parent="1" source="F0ZZbwECHCnWUXEjkvRt-41" target="F0ZZbwECHCnWUXEjkvRt-63">
          <mxGeometry relative="1" as="geometry">
            <Array as="points">
              <mxPoint x="1610" y="299" />
              <mxPoint x="1610" y="690" />
            </Array>
          </mxGeometry>
        </mxCell>
        <mxCell id="F0ZZbwECHCnWUXEjkvRt-41" value="perf_analysis" style="rounded=0;whiteSpace=wrap;html=1;fillColor=#FFFFFF;" vertex="1" parent="1">
          <mxGeometry x="1380" y="269" width="120" height="60" as="geometry" />
        </mxCell>
        <mxCell id="F0ZZbwECHCnWUXEjkvRt-42" style="edgeStyle=orthogonalEdgeStyle;rounded=0;orthogonalLoop=1;jettySize=auto;html=1;exitX=0.5;exitY=1;exitDx=0;exitDy=0;entryX=0;entryY=0.5;entryDx=0;entryDy=0;entryPerimeter=0;" edge="1" parent="1" source="F0ZZbwECHCnWUXEjkvRt-43" target="F0ZZbwECHCnWUXEjkvRt-49">
          <mxGeometry relative="1" as="geometry" />
        </mxCell>
        <mxCell id="F0ZZbwECHCnWUXEjkvRt-43" value="server(n) middleware metrics" style="rounded=0;whiteSpace=wrap;html=1;fillColor=#FFFFFF;" vertex="1" parent="1">
          <mxGeometry x="1210" y="490" width="120" height="60" as="geometry" />
        </mxCell>
        <mxCell id="F0ZZbwECHCnWUXEjkvRt-44" style="edgeStyle=orthogonalEdgeStyle;rounded=0;orthogonalLoop=1;jettySize=auto;html=1;exitX=0.5;exitY=1;exitDx=0;exitDy=0;entryX=1;entryY=0.5;entryDx=0;entryDy=0;entryPerimeter=0;" edge="1" parent="1" source="F0ZZbwECHCnWUXEjkvRt-45" target="F0ZZbwECHCnWUXEjkvRt-49">
          <mxGeometry relative="1" as="geometry" />
        </mxCell>
        <mxCell id="F0ZZbwECHCnWUXEjkvRt-45" value="server(n+1) metrics" style="rounded=0;whiteSpace=wrap;html=1;fillColor=#FFFFFF;" vertex="1" parent="1">
          <mxGeometry x="1380" y="490" width="120" height="60" as="geometry" />
        </mxCell>
        <mxCell id="F0ZZbwECHCnWUXEjkvRt-46" style="edgeStyle=orthogonalEdgeStyle;rounded=0;orthogonalLoop=1;jettySize=auto;html=1;exitX=0.5;exitY=1;exitDx=0;exitDy=0;entryX=0.5;entryY=0;entryDx=0;entryDy=0;" edge="1" parent="1" source="F0ZZbwECHCnWUXEjkvRt-48" target="F0ZZbwECHCnWUXEjkvRt-43">
          <mxGeometry relative="1" as="geometry" />
        </mxCell>
        <mxCell id="F0ZZbwECHCnWUXEjkvRt-47" style="edgeStyle=orthogonalEdgeStyle;rounded=0;orthogonalLoop=1;jettySize=auto;html=1;exitX=0.5;exitY=1;exitDx=0;exitDy=0;entryX=0.5;entryY=0;entryDx=0;entryDy=0;" edge="1" parent="1" source="F0ZZbwECHCnWUXEjkvRt-48" target="F0ZZbwECHCnWUXEjkvRt-45">
          <mxGeometry relative="1" as="geometry" />
        </mxCell>
        <mxCell id="F0ZZbwECHCnWUXEjkvRt-48" value="perf_monitor" style="rounded=0;whiteSpace=wrap;html=1;fillColor=#FFFFFF;" vertex="1" parent="1">
          <mxGeometry x="1290" y="370" width="120" height="60" as="geometry" />
        </mxCell>
        <mxCell id="F0ZZbwECHCnWUXEjkvRt-49" value="cache" style="shape=mxgraph.flowchart.database;whiteSpace=wrap;html=1;fillColor=#ffffff;strokeColor=#000000;strokeWidth=2" vertex="1" parent="1">
          <mxGeometry x="1330" y="600" width="60" height="60" as="geometry" />
        </mxCell>
        <mxCell id="F0ZZbwECHCnWUXEjkvRt-50" value="client monitor&lt;br /&gt;server monitor&lt;br /&gt;expected qps&lt;br /&gt;trace link" style="shape=document;whiteSpace=wrap;html=1;boundedLbl=1;dashed=1;" vertex="1" parent="1">
          <mxGeometry x="200" y="263.5" width="90" height="106.5" as="geometry" />
        </mxCell>
        <mxCell id="F0ZZbwECHCnWUXEjkvRt-51" style="edgeStyle=orthogonalEdgeStyle;rounded=0;orthogonalLoop=1;jettySize=auto;html=1;exitX=0.5;exitY=1;exitDx=0;exitDy=0;entryX=0.5;entryY=0;entryDx=0;entryDy=0;" edge="1" parent="1" source="F0ZZbwECHCnWUXEjkvRt-54" target="F0ZZbwECHCnWUXEjkvRt-57">
          <mxGeometry relative="1" as="geometry" />
        </mxCell>
        <mxCell id="F0ZZbwECHCnWUXEjkvRt-52" style="edgeStyle=orthogonalEdgeStyle;rounded=0;orthogonalLoop=1;jettySize=auto;html=1;exitX=0.5;exitY=1;exitDx=0;exitDy=0;" edge="1" parent="1" source="F0ZZbwECHCnWUXEjkvRt-54" target="F0ZZbwECHCnWUXEjkvRt-61">
          <mxGeometry relative="1" as="geometry" />
        </mxCell>
        <mxCell id="F0ZZbwECHCnWUXEjkvRt-53" style="edgeStyle=orthogonalEdgeStyle;rounded=0;orthogonalLoop=1;jettySize=auto;html=1;exitX=1;exitY=0.5;exitDx=0;exitDy=0;entryX=0.5;entryY=0;entryDx=0;entryDy=0;entryPerimeter=0;" edge="1" parent="1" source="F0ZZbwECHCnWUXEjkvRt-54" target="F0ZZbwECHCnWUXEjkvRt-63">
          <mxGeometry relative="1" as="geometry">
            <mxPoint x="1190" y="620" as="targetPoint" />
          </mxGeometry>
        </mxCell>
        <mxCell id="F0ZZbwECHCnWUXEjkvRt-54" value="perf_analysis" style="rounded=0;whiteSpace=wrap;html=1;fillColor=#FFFFFF;" vertex="1" parent="1">
          <mxGeometry x="960" y="269" width="120" height="60" as="geometry" />
        </mxCell>
        <mxCell id="F0ZZbwECHCnWUXEjkvRt-55" style="edgeStyle=orthogonalEdgeStyle;rounded=0;orthogonalLoop=1;jettySize=auto;html=1;exitX=0.5;exitY=1;exitDx=0;exitDy=0;entryX=0.5;entryY=0;entryDx=0;entryDy=0;" edge="1" parent="1" source="F0ZZbwECHCnWUXEjkvRt-57" target="F0ZZbwECHCnWUXEjkvRt-58">
          <mxGeometry relative="1" as="geometry" />
        </mxCell>
        <mxCell id="F0ZZbwECHCnWUXEjkvRt-56" style="edgeStyle=orthogonalEdgeStyle;rounded=0;orthogonalLoop=1;jettySize=auto;html=1;exitX=0.5;exitY=1;exitDx=0;exitDy=0;" edge="1" parent="1" source="F0ZZbwECHCnWUXEjkvRt-57" target="F0ZZbwECHCnWUXEjkvRt-59">
          <mxGeometry relative="1" as="geometry" />
        </mxCell>
        <mxCell id="F0ZZbwECHCnWUXEjkvRt-57" value="client checker" style="rounded=0;whiteSpace=wrap;html=1;fillColor=#FFFFFF;" vertex="1" parent="1">
          <mxGeometry x="840" y="370" width="120" height="60" as="geometry" />
        </mxCell>
        <mxCell id="F0ZZbwECHCnWUXEjkvRt-58" value="client monitor&lt;br /&gt;vs&lt;br /&gt;expected qps" style="rounded=0;whiteSpace=wrap;html=1;fillColor=#FFFFFF;" vertex="1" parent="1">
          <mxGeometry x="760" y="490" width="120" height="60" as="geometry" />
        </mxCell>
        <mxCell id="F0ZZbwECHCnWUXEjkvRt-59" value="error stat" style="rounded=0;whiteSpace=wrap;html=1;fillColor=#FFFFFF;" vertex="1" parent="1">
          <mxGeometry x="910" y="490" width="120" height="60" as="geometry" />
        </mxCell>
        <mxCell id="F0ZZbwECHCnWUXEjkvRt-60" style="edgeStyle=orthogonalEdgeStyle;rounded=0;orthogonalLoop=1;jettySize=auto;html=1;exitX=0.5;exitY=1;exitDx=0;exitDy=0;" edge="1" parent="1" source="F0ZZbwECHCnWUXEjkvRt-61" target="F0ZZbwECHCnWUXEjkvRt-36">
          <mxGeometry relative="1" as="geometry" />
        </mxCell>
        <mxCell id="F0ZZbwECHCnWUXEjkvRt-61" value="server checker" style="rounded=0;whiteSpace=wrap;html=1;fillColor=#FFFFFF;" vertex="1" parent="1">
          <mxGeometry x="1050" y="370" width="120" height="60" as="geometry" />
        </mxCell>
        <mxCell id="F0ZZbwECHCnWUXEjkvRt-62" value="pprof" style="rounded=0;whiteSpace=wrap;html=1;fillColor=#FFFFFF;strokeColor=#000000;dashed=1;" vertex="1" parent="1">
          <mxGeometry x="1470" y="370" width="120" height="60" as="geometry" />
        </mxCell>
        <mxCell id="F0ZZbwECHCnWUXEjkvRt-63" value="DB" style="shape=mxgraph.flowchart.database;whiteSpace=wrap;html=1;fillColor=#ffffff;strokeColor=#000000;strokeWidth=2" vertex="1" parent="1">
          <mxGeometry x="1160" y="660" width="60" height="60" as="geometry" />
        </mxCell>
      </root>
    </mxGraphModel>
  </diagram>
</mxfile>
